<svg id="Calque_1" data-name="Calque 1" xmlns="http://www.w3.org/2000/svg" viewBox="0 0 11.3 11.98"><defs><style>.cls-1{fill:#76777f;}</style></defs><path class="cls-1" d="M6.13,2.06H8.48a.2.2,0,1,0,0-.4H6.13a.2.2,0,0,0,0,.4Z"/><path class="cls-1" d="M6.13,3.61H8.48a.2.2,0,1,0,0-.4H6.13a.2.2,0,0,0,0,.4Z"/><path class="cls-1" d="M8.48,4.75H3.09a.2.2,0,0,0,0,.4H8.48a.2.2,0,1,0,0-.4Z"/><path class="cls-1" d="M8.48,6.3H3.09a.2.2,0,1,0,0,.4H8.48a.2.2,0,1,0,0-.4Z"/><path class="cls-1" d="M8.48,7.84H3.09a.2.2,0,0,0,0,.4H8.48a.2.2,0,0,0,0-.4Z"/><path class="cls-1" d="M6.59,9.38H3.09a.2.2,0,0,0,0,.4h3.5a.2.2,0,1,0,0-.4Z"/><path class="cls-1" d="M5,4.1a.2.2,0,0,0,.2-.2V1.46a.2.2,0,0,0-.2-.2H3a.2.2,0,0,0-.2.2V3.9a.2.2,0,0,0,.2.2ZM3.18,1.66H4.81v2H3.18Z"/><path class="cls-1" d="M10.1,0H1.2A.54.54,0,0,0,.66.54v10.9A.54.54,0,0,0,1.2,12H8.37l.06,0h0l2.14-1.8h0v0h0V10h0V.54A.54.54,0,0,0,10.1,0Zm-9,11.44V.54A.14.14,0,0,1,1.2.4h8.9a.14.14,0,0,1,.14.14V9.78H8.3a.19.19,0,0,0-.2.19v1.61H1.2a.14.14,0,0,1-.14-.14Z"/></svg>