<?xml version="1.0" encoding="utf-8"?>
<!-- Generator: Adobe Illustrator 26.0.1, SVG Export Plug-In . SVG Version: 6.00 Build 0)  -->
<svg version="1.1" id="Calque_1" xmlns="http://www.w3.org/2000/svg" xmlns:xlink="http://www.w3.org/1999/xlink" x="0px" y="0px"
	 viewBox="0 0 128 128" style="enable-background:new 0 0 128 128;" xml:space="preserve">
<style type="text/css">
	.st0{fill:#0087CF;}
</style>
<g>
	<path class="st0" d="M76.79,65.89l-6.56-6.56L58.49,47.59c-0.1-0.11-0.26-0.14-0.4-0.08c-0.14,0.06-0.23,0.19-0.23,0.34v18.3
		c0,0.1,0.04,0.19,0.11,0.26s0.16,0.11,0.26,0.11h18.3c0.15,0,0.28-0.09,0.34-0.23C76.93,66.15,76.9,65.99,76.79,65.89L76.79,65.89z
		 M58.6,65.78V48.73l1.8,1.8l-0.52,0.52c-0.14,0.14-0.14,0.38,0,0.52s0.37,0.14,0.52,0l0.52-0.52l0.78,0.78l-0.78,0.78
		c-0.13,0.14-0.13,0.37,0.01,0.5c0.14,0.14,0.36,0.14,0.5,0.01l0.78-0.78l0.78,0.77l-0.52,0.52v0c-0.07,0.07-0.12,0.16-0.12,0.26
		c0,0.1,0.04,0.2,0.11,0.27c0.07,0.07,0.17,0.11,0.27,0.11c0.1,0,0.19-0.05,0.26-0.12l0.52-0.52l0.76,0.78l-0.77,0.78
		c-0.07,0.07-0.11,0.16-0.11,0.26c0,0.1,0.04,0.19,0.11,0.26c0.07,0.07,0.16,0.11,0.26,0.11c0.1,0,0.19-0.04,0.26-0.11l0.78-0.78
		l0.78,0.78l-0.52,0.52v0c-0.1,0.1-0.14,0.26-0.08,0.4c0.06,0.14,0.19,0.23,0.34,0.23c0.1,0,0.19-0.04,0.26-0.11l0.52-0.52L66.87,57
		l-0.78,0.78h0c-0.14,0.14-0.14,0.37,0,0.52c0.14,0.14,0.37,0.14,0.52,0l0.78-0.78l0.78,0.78l-0.52,0.52
		c-0.1,0.1-0.14,0.26-0.08,0.4c0.06,0.14,0.19,0.23,0.34,0.23c0.1,0,0.19-0.04,0.26-0.11l0.52-0.52l0.78,0.78l-0.78,0.78h0
		c-0.14,0.14-0.14,0.37,0,0.52c0.14,0.14,0.38,0.14,0.52,0l0.78-0.77l0.78,0.78l-0.52,0.51c-0.07,0.07-0.12,0.16-0.12,0.26
		c0,0.1,0.04,0.2,0.11,0.27c0.07,0.07,0.17,0.11,0.27,0.11c0.1,0,0.2-0.05,0.26-0.12l0.52-0.52l0.78,0.78l-0.78,0.78
		c-0.1,0.1-0.14,0.26-0.08,0.4c0.06,0.14,0.19,0.23,0.34,0.23c0.09,0,0.18-0.04,0.25-0.1l0.78-0.78l0.78,0.78l-0.52,0.52v0
		c-0.07,0.07-0.11,0.16-0.11,0.26c0,0.1,0.04,0.19,0.11,0.26c0.15,0.14,0.38,0.14,0.52,0l0.52-0.52l1.8,1.8L58.6,65.78z"/>
</g>
</svg>
