<?xml version="1.0" encoding="utf-8"?>
<!-- Generator: Adobe Illustrator 26.0.1, SVG Export Plug-In . SVG Version: 6.00 Build 0)  -->
<svg version="1.1" id="Calque_1" xmlns="http://www.w3.org/2000/svg" xmlns:xlink="http://www.w3.org/1999/xlink" x="0px" y="0px"
	 viewBox="0 0 11.43 11.43" style="enable-background:new 0 0 11.43 11.43;" xml:space="preserve">
<style type="text/css">
	.st0{fill:#76777F;}
</style>
<path class="st0" d="M5.71,0C2.56,0,0,2.56,0,5.71s2.56,5.71,5.71,5.71s5.71-2.56,5.71-5.71S8.87,0,5.71,0z M5.71,0.76
	c2.74,0,4.95,2.21,4.95,4.95s-2.21,4.95-4.95,4.95S0.76,8.45,0.76,5.71S2.97,0.76,5.71,0.76L5.71,0.76z M5.71,2.54
	c-1.05,0-1.9,0.86-1.9,1.9c0,0.1,0.04,0.2,0.11,0.27c0.07,0.07,0.17,0.11,0.27,0.11c0.1,0,0.2-0.04,0.27-0.11
	c0.07-0.07,0.11-0.17,0.11-0.27c0-0.64,0.51-1.14,1.14-1.14s1.14,0.51,1.14,1.14c0,0.52-0.26,0.79-0.64,1.14
	c-0.19,0.18-0.4,0.36-0.57,0.6C5.47,6.43,5.33,6.75,5.33,7.11c0,0.1,0.04,0.2,0.11,0.27C5.52,7.46,5.61,7.5,5.71,7.5
	s0.2-0.04,0.27-0.11C6.06,7.31,6.1,7.21,6.1,7.11c0-0.19,0.06-0.32,0.17-0.47c0.11-0.15,0.29-0.32,0.48-0.5
	c0.39-0.37,0.88-0.88,0.88-1.69v0C7.62,3.4,6.76,2.54,5.71,2.54L5.71,2.54z M5.71,7.87c-0.28,0-0.51,0.23-0.51,0.51
	c0,0.28,0.23,0.51,0.51,0.51s0.51-0.23,0.51-0.51C6.22,8.1,6,7.87,5.71,7.87z"/>
</svg>
