<?xml version="1.0" encoding="utf-8"?>
<!-- Generator: Adobe Illustrator 26.0.1, SVG Export Plug-In . SVG Version: 6.00 Build 0)  -->
<svg version="1.1" id="Calque_1" xmlns="http://www.w3.org/2000/svg" xmlns:xlink="http://www.w3.org/1999/xlink" x="0px" y="0px"
	 viewBox="0 0 11.43 11.43" style="enable-background:new 0 0 11.43 11.43;" xml:space="preserve">
<style type="text/css">
	.st0{fill:#76777F;}
</style>
<g>
	<g>
		<g>
			<path class="st0" d="M5.71,0.11c-3.09,0-5.61,2.52-5.61,5.61s2.52,5.61,5.61,5.61s5.61-2.52,5.61-5.61S8.81,0.11,5.71,0.11z
				 M5.71,10.93c-2.87,0-5.21-2.34-5.21-5.21c0-2.87,2.34-5.21,5.21-5.21s5.21,2.34,5.21,5.21C10.93,8.59,8.59,10.93,5.71,10.93z
				 M5.71,3.69c0.23,0,0.42-0.19,0.42-0.42c0-0.23-0.19-0.42-0.42-0.42c-0.23,0-0.42,0.19-0.42,0.42C5.3,3.51,5.49,3.69,5.71,3.69z
				 M5.71,4.57c-0.13,0-0.23,0.11-0.23,0.23v3.55c0,0.13,0.11,0.23,0.23,0.23c0.13,0,0.23-0.11,0.23-0.23V4.8
				C5.95,4.67,5.84,4.57,5.71,4.57z"/>
			<path class="st0" d="M5.71,11.45c-3.16,0-5.73-2.57-5.73-5.73c0-3.16,2.57-5.73,5.73-5.73s5.73,2.57,5.73,5.73
				C11.45,8.88,8.88,11.45,5.71,11.45z M5.71,0.23c-3.02,0-5.48,2.46-5.48,5.48s2.46,5.48,5.48,5.48s5.48-2.46,5.48-5.48
				S8.74,0.23,5.71,0.23z M5.71,11.05c-2.94,0-5.34-2.39-5.34-5.34s2.39-5.34,5.34-5.34s5.34,2.39,5.34,5.34S8.66,11.05,5.71,11.05z
				 M5.71,0.63c-2.81,0-5.09,2.28-5.09,5.09s2.28,5.09,5.09,5.09s5.09-2.28,5.09-5.09S8.52,0.63,5.71,0.63z M5.71,8.71
				c-0.2,0-0.36-0.16-0.36-0.36V4.8c0-0.2,0.16-0.36,0.36-0.36S6.07,4.6,6.07,4.8v3.55C6.07,8.55,5.91,8.71,5.71,8.71z M5.71,4.69
				C5.65,4.69,5.6,4.74,5.6,4.8v3.55c0,0.06,0.05,0.11,0.11,0.11s0.11-0.05,0.11-0.11V4.8C5.82,4.74,5.78,4.69,5.71,4.69z
				 M5.71,3.82c-0.3,0-0.54-0.24-0.54-0.54s0.24-0.54,0.54-0.54s0.54,0.24,0.54,0.54S6.01,3.82,5.71,3.82z M5.71,2.99
				c-0.16,0-0.29,0.13-0.29,0.29s0.13,0.29,0.29,0.29s0.29-0.13,0.29-0.29S5.88,2.99,5.71,2.99z"/>
		</g>
	</g>
</g>
</svg>
