<svg id="Calque_1" data-name="Calque 1" xmlns="http://www.w3.org/2000/svg" viewBox="0 0 11.3 11.98"><defs><style>.cls-1{fill:#76777f;}</style></defs><path class="cls-1" d="M4.4,10.48H6.9a.24.24,0,0,0,.25-.25V.25A.24.24,0,0,0,6.9,0H4.4a.24.24,0,0,0-.25.25v10A.24.24,0,0,0,4.4,10.48ZM4.66.5h2V10h-2Zm-4.25,10h2.5a.24.24,0,0,0,.25-.25V5.74a.24.24,0,0,0-.25-.25H.41a.24.24,0,0,0-.25.25v4.49A.24.24,0,0,0,.41,10.48ZM.66,6h2v4h-2ZM8.4,10.48h2.5a.24.24,0,0,0,.25-.25V2.74a.24.24,0,0,0-.25-.25H8.4a.24.24,0,0,0-.25.25v7.49A.24.24,0,0,0,8.4,10.48ZM8.64,3h2v7h-2Zm2.65,8.74a.23.23,0,0,1-.21.25H.21A.22.22,0,0,1,0,11.73c0-.15.08-.26.21-.26H11.08A.23.23,0,0,1,11.29,11.73Z"/></svg>