<?xml version="1.0" encoding="utf-8"?>
<!-- Generator: Adobe Illustrator 26.0.1, SVG Export Plug-In . SVG Version: 6.00 Build 0)  -->
<svg version="1.1" id="Calque_1" xmlns="http://www.w3.org/2000/svg" xmlns:xlink="http://www.w3.org/1999/xlink" x="0px" y="0px"
	 viewBox="0 0 128 128" style="enable-background:new 0 0 128 128;" xml:space="preserve">
<style type="text/css">
	.st0{fill:#0087CF;}
</style>
<g>
	<path class="st0" d="M74.93,61.85h-1.81c-0.38,0-0.69-0.32-0.68-0.7c0-0.18,0.07-0.35,0.2-0.48l1.28-1.28
		c0.39-0.39,0.39-1.02,0-1.41l-1.63-1.63c-0.39-0.38-1.01-0.38-1.41,0l-1.29,1.27c-0.27,0.27-0.71,0.27-0.98,0
		c-0.13-0.13-0.2-0.31-0.2-0.49v-1.8c0-0.55-0.44-0.99-0.99-1h-2.32c-0.55,0-1,0.45-1,1v1.81c-0.01,0.38-0.33,0.69-0.71,0.68
		c-0.17,0-0.34-0.07-0.47-0.2l-1.28-1.28c-0.39-0.38-1.01-0.38-1.41,0l-1.63,1.63c-0.39,0.39-0.39,1.02,0,1.41l1.27,1.29
		c0.27,0.27,0.27,0.71,0,0.98c-0.13,0.13-0.31,0.2-0.49,0.2h-1.8c-0.55,0-0.99,0.44-1,0.99v2.32c0,0.55,0.45,1,1,1h1.81
		c0.28-0.01,0.54,0.17,0.64,0.43c0.11,0.26,0.04,0.56-0.16,0.75l-1.28,1.28c-0.39,0.39-0.39,1.02,0,1.41l1.63,1.63
		c0.39,0.38,1.01,0.38,1.41,0l1.29-1.27c0.27-0.27,0.71-0.27,0.98,0c0.13,0.13,0.2,0.31,0.2,0.49v1.81
		c0.01,0.54,0.45,0.98,0.99,0.99h2.32c0.55,0,1-0.45,1-1l0,0v-1.81c-0.01-0.28,0.17-0.54,0.43-0.64c0.26-0.12,0.56-0.06,0.76,0.15
		l1.28,1.28c0.39,0.38,1.01,0.38,1.41,0l1.63-1.63c0.39-0.39,0.39-1.02,0-1.41l-1.28-1.28c-0.27-0.27-0.27-0.71,0-0.98
		c0.13-0.13,0.31-0.2,0.49-0.2h1.81c0.54-0.01,0.98-0.45,0.99-0.99v-2.32C75.93,62.29,75.48,61.85,74.93,61.85z M75.21,65.15
		c0,0.15-0.12,0.28-0.28,0.28c0,0,0,0,0,0h-1.81c-0.78,0-1.41,0.63-1.41,1.41c0,0.37,0.15,0.73,0.41,1l1.29,1.28
		c0.11,0.11,0.11,0.29,0,0.4l-1.63,1.63c-0.11,0.11-0.29,0.11-0.4,0l-1.28-1.28c-0.55-0.55-1.45-0.55-2,0
		c-0.26,0.26-0.41,0.62-0.41,1v1.81c0,0.15-0.12,0.28-0.28,0.28c0,0,0,0,0,0h-2.32c-0.15,0-0.28-0.12-0.28-0.28c0,0,0,0,0,0v-1.81
		c0.01-0.57-0.34-1.09-0.87-1.3c-0.53-0.22-1.14-0.1-1.54,0.31l-1.28,1.28c-0.11,0.11-0.29,0.11-0.4,0l-1.62-1.63
		c-0.11-0.11-0.11-0.29,0-0.4l1.28-1.28c0.55-0.55,0.55-1.44,0-1.99c-0.27-0.27-0.63-0.42-1-0.41h-1.81c-0.15,0-0.28-0.12-0.28-0.28
		c0,0,0,0,0,0v-2.31c0-0.15,0.12-0.28,0.28-0.28c0,0,0,0,0,0h1.81c0.78,0,1.41-0.63,1.41-1.41c0-0.37-0.15-0.73-0.41-1l-1.28-1.28
		c-0.11-0.11-0.11-0.29,0-0.4l1.63-1.63c0.11-0.11,0.29-0.11,0.4,0l1.28,1.28c0.55,0.55,1.45,0.55,2,0c0.26-0.26,0.41-0.62,0.41-1
		v-1.81c0-0.15,0.12-0.28,0.28-0.28c0,0,0,0,0,0h2.31c0.15,0,0.28,0.12,0.28,0.28c0,0,0,0,0,0v1.81c0,0.78,0.63,1.41,1.41,1.41
		c0.37,0,0.73-0.15,1-0.41l1.28-1.28c0.11-0.11,0.29-0.11,0.4,0l1.63,1.63c0.11,0.11,0.11,0.29,0,0.4l-1.28,1.28
		c-0.55,0.55-0.55,1.45,0,2c0.26,0.26,0.62,0.41,1,0.41h1.81c0.15,0,0.28,0.12,0.28,0.28v0v2.31H75.21z"/>
	<path class="st0" d="M66.25,60.77c-1.78,0-3.22,1.45-3.22,3.23c0,1.78,1.45,3.22,3.23,3.22c1.78,0,3.22-1.44,3.22-3.22
		C69.48,62.22,68.03,60.77,66.25,60.77z M66.25,66.52c-1.39,0-2.52-1.13-2.52-2.52c0-1.39,1.13-2.52,2.52-2.52s2.52,1.13,2.52,2.52
		C68.77,65.39,67.64,66.52,66.25,66.52z"/>
</g>
</svg>
