<?xml version="1.0" encoding="utf-8"?>
<!-- Generator: Adobe Illustrator 26.0.1, SVG Export Plug-In . SVG Version: 6.00 Build 0)  -->
<svg version="1.1" id="Calque_1" xmlns="http://www.w3.org/2000/svg" xmlns:xlink="http://www.w3.org/1999/xlink" x="0px" y="0px"
	 viewBox="0 0 11.3 11.98" style="enable-background:new 0 0 11.3 11.98;" xml:space="preserve">
<style type="text/css">
	.st0{fill:#76777F;}
</style>
<g>
	<path class="st0" d="M5.65,11.97c-1.13,0-2.26,0.01-3.39-0.01c-0.31-0.01-0.63-0.08-0.93-0.17c-1-0.33-1.47-1.06-1.3-2.12
		c0.17-1.04,0.46-2.07,0.98-3C1.15,6.43,1.31,6.2,1.5,6.01c0.43-0.45,0.98-0.55,1.54-0.27c0.26,0.13,0.5,0.32,0.74,0.5
		C4.19,6.55,4.6,6.86,5.13,6.96C5.88,7.1,6.56,6.95,7.18,6.5c0.26-0.2,0.51-0.42,0.79-0.59c0.23-0.14,0.5-0.25,0.76-0.3
		C9.21,5.53,9.6,5.74,9.89,6.1c0.19,0.24,0.37,0.5,0.5,0.78c0.44,0.9,0.73,1.86,0.87,2.86c0.15,1.04-0.35,1.77-1.35,2.07
		c-0.34,0.1-0.71,0.16-1.07,0.16C7.79,11.99,6.72,11.97,5.65,11.97C5.65,11.97,5.65,11.97,5.65,11.97z M5.66,11.35
		c1.06,0,2.12,0,3.18,0c0.43,0,0.84-0.08,1.21-0.28c0.47-0.25,0.69-0.67,0.61-1.19c-0.13-0.83-0.35-1.63-0.68-2.4
		C9.85,7.15,9.66,6.83,9.44,6.54C9.17,6.17,8.83,6.12,8.43,6.35C8.32,6.42,8.21,6.5,8.1,6.58C7.86,6.76,7.63,6.95,7.38,7.11
		c-0.77,0.51-1.61,0.63-2.5,0.43C4.35,7.42,3.91,7.13,3.49,6.8C3.27,6.64,3.06,6.47,2.83,6.33C2.47,6.13,2.16,6.18,1.89,6.5
		C1.75,6.67,1.61,6.86,1.51,7.05C1.08,7.89,0.83,8.8,0.65,9.72c-0.15,0.8,0.18,1.29,0.97,1.51c0.28,0.08,0.57,0.12,0.86,0.12
		C3.54,11.36,4.6,11.35,5.66,11.35z"/>
	<path class="st0" d="M8.64,3.02C8.64,4.67,7.3,6,5.64,6C3.97,5.99,2.66,4.66,2.66,2.98C2.66,1.33,4,0,5.66,0
		C7.33,0,8.64,1.34,8.64,3.02z M8.02,3c0-1.31-1.07-2.38-2.38-2.38C4.34,0.63,3.28,1.69,3.28,2.99c0,1.32,1.06,2.38,2.37,2.39
		C6.96,5.38,8.02,4.32,8.02,3z"/>
</g>
</svg>
