<?xml version="1.0" encoding="utf-8"?>
<!-- Generator: Adobe Illustrator 26.0.1, SVG Export Plug-In . SVG Version: 6.00 Build 0)  -->
<svg version="1.1" id="Calque_1" xmlns="http://www.w3.org/2000/svg" xmlns:xlink="http://www.w3.org/1999/xlink" x="0px" y="0px"
	 viewBox="0 0 128 128" style="enable-background:new 0 0 128 128;" xml:space="preserve">
<style type="text/css">
	.st0{fill:#0087CF;}
</style>
<g>
	<g>
		<path class="st0" d="M73.61,53.75l-1.55-1.55c-0.15-0.15-0.4-0.15-0.55,0c-0.15,0.15-0.15,0.4,0,0.55l0.89,0.89h-2.16
			c-1.35,0-2.52,0.77-3.1,1.89c-0.58-1.12-1.75-1.89-3.1-1.89h-2.16l0.89-0.89c0.15-0.15,0.15-0.4,0-0.55
			c-0.15-0.15-0.4-0.15-0.55,0l-1.55,1.55c-0.15,0.15-0.15,0.4,0,0.55l1.55,1.55c0.08,0.08,0.17,0.11,0.27,0.11
			c0.1,0,0.2-0.04,0.27-0.11c0.15-0.15,0.15-0.4,0-0.55l-0.89-0.89h2.16c1.49,0,2.71,1.22,2.71,2.71v5.42
			c0,0.21,0.17,0.39,0.39,0.39s0.39-0.17,0.39-0.39v-5.42c0-1.49,1.22-2.71,2.71-2.71h2.16l-0.89,0.89c-0.15,0.15-0.15,0.4,0,0.55
			c0.08,0.08,0.17,0.11,0.27,0.11s0.2-0.04,0.27-0.11l1.55-1.55C73.77,54.15,73.77,53.91,73.61,53.75L73.61,53.75z"/>
		<path class="st0" d="M67.15,46.68c-5.34,0-9.68,4.34-9.68,9.68s4.34,9.68,9.68,9.68c5.33,0,9.68-4.34,9.68-9.68
			S72.48,46.68,67.15,46.68z M67.15,65.25c-4.91,0-8.9-3.99-8.9-8.9c0-4.91,3.99-8.9,8.9-8.9c4.91,0,8.9,3.99,8.9,8.9
			C76.05,61.26,72.06,65.25,67.15,65.25z"/>
	</g>
</g>
</svg>
